<svg viewBox="0 0 32 32" xmlns="http://www.w3.org/2000/svg">
	<path d="M10 2h16a4 4 0 0 1 2 1 6 6 0 0 1 2 4v1a1 1 0 0 1 0 1 2 2 0 0 1-1 0h-2v16a5 5 0 0 1-1 3 5 5 0 0 1-3 2 6 6 0 0 1-1 0H7a5 5 0 0 1-3-1 6 6 0 0 1-2-4v-1a1 1 0 0 1 0-1 1 1 0 0 1 1 0h3V7a5 5 0 0 1 1-4 5 5 0 0 1 3-1" style="fill:#333" />
	<path d="M7 6a6 6 0 0 0 0 2v15h10a1 1 0 0 1 1 1 5 5 0 0 0 1 3 4 4 0 0 0 3 1 3 3 0 0 0 3-3V7a6 6 0 0 1 1-2 3 3 0 0 1 0-1H10a3 3 0 0 0-3 2Z" style="fill:gray" />
	<path d="M13 11a1 1 0 0 1 1 1v1l-3 2 3 3a1 1 0 0 1 0 1 1 1 0 0 1-1 0l-4-3a1 1 0 0 1 0-1l4-4Zm5 1a1 1 0 0 1 1-1l4 3a1 1 0 0 1 0 2l-4 3a1 1 0 0 1 0 1 1 1 0 0 1-1-1 1 1 0 0 1 0-1l3-3-3-3Z" style="fill:#333" />
</svg>
