<svg viewBox="0, 0, 400,402.94117647058823" fill="currentColor" version="1.1" xmlns="http://www.w3.org/2000/svg">
	<path d="M42.05 33.57c-.37.23-.35.41.08.77.44.36.67.34 1.03-.09.54-.66-.3-1.18-1.11-.68m81.85-.1c-.54.15-.6.36-.31.91.63 1.17 1.6 1.33 1.97.31.3-.8-.1-1.57-.76-1.44l-.9.23M44.4 37.5c-.71 1.2-.94 1.3-2.79 1.3-2.35 0-5.01 2.11-5.46 4.33a4.07 4.07 0 0 1-1 1.91c-.47.43-.75 1.22-.75 2.14 0 .8-.23 1.69-.5 1.96-.56.56-1.01 284.85-.49 306.32l.28 11.25.94.43c.93.43 1.1.8 1.56 3.73.22 1.36.36 1.49 1.92 1.75 1.2.2 2.1.72 3.15 1.8 2.59 2.66 3.58 2.68 162.54 2.72 157.07.04 155.2.07 158.84-3.12a7.19 7.19 0 0 1 2.58-1.48c.96-.2 1.2-.49 1.4-1.69.39-2.36.97-3.52 2-3.99l.98-.44.1-132.51.1-132.51-1.28-1.2a7.53 7.53 0 0 1-1.77-2.95c-.39-1.33-.77-1.84-1.63-2.14-.77-.27-1.22-.78-1.44-1.65l-.33-1.26-5.04-.2c-4.53-.18-5.15-.3-6-1.1-.88-.82-1.38-.9-5.94-.97l-4.97-.08 5.4-.22c2.97-.13 5.65-.4 5.96-.59.3-.2 1.9-.49 3.53-.65 2.87-.28 4.69-1.15 3.95-1.88-.34-.34-183.91-.66-185.31-.32-.6.14-.92.57-1 1.31-.17 1.4-4.02 1.9-9.88 1.28-4.36-.46-4.19-.38-5.47-2.41-.9-1.42-1.15-1.57-2.66-1.57-1.34 0-1.92-.25-2.9-1.23-.67-.67-2.9-2.84-4.94-4.8-3.93-3.78-4.88-5.33-4.88-7.95 0-1.29-.24-1.83-1.2-2.68-.99-.88-1.2-1.38-1.2-2.83 0-1.83-.7-3.6-1.78-4.5a5.44 5.44 0 0 1-1.08-2.27c-.24-.97-.95-2.4-1.58-3.19a7.42 7.42 0 0 1-1.36-2.9c-.52-3.44-.82-4.24-1.75-4.7-1.34-.67-1.64-1.28-1.64-3.44 0-1.47-.19-1.98-.82-2.31a7.02 7.02 0 0 1-1.8-2.02l-1-1.58h-4.41c-4.18 0-4.47-.05-5.33-.98l-.9-.98-36.1-.12-36.09-.12-.77 1.3m131.7 51.75c.84.45.84.45-.12.97-1.04.56-1.97.15-1.97-.87 0-.67.95-.71 2.1-.1" />
	<path fill="#57575a" fill-rule="evenodd" d="M37.7 25.08c-.73.14-.9.44-.9 1.55 0 1.3-.07 1.37-1.4 1.37-1.32 0-1.4.07-1.4 1.35 0 1.15-.16 1.38-1.1 1.57-.97.2-1.1.4-1.1 1.74 0 1.26-.19 1.61-1.1 2.05-.6.3-1.38 1.06-1.71 1.71-.62 1.2-.8 1.3-2.59 1.35-1.2.04-1.6 1.52-.68 2.56 1.85 2.11.9 4.07-1.98 4.07H22v163.8c0 90.09.14 163.78.3 163.75.17-.02.88-.02 1.6 0l1.3.05v5.56l1.4.27c1.27.24 1.4.38 1.4 1.62 0 1.28.07 1.35 1.4 1.35 1.37 0 1.74.64 1.45 2.5-.03.16.66.3 1.53.3 1.53 0 1.57.04 1.7 1.5.1 1.17.28 1.49.85 1.44.4-.04 1.7.07 2.88.23s2.07.16 1.98 0c-.24-.38 1.9-.77 4.27-.77 2.1 0 2.42.3 2.5 2.35l.04 1.05h155c154.77 0 155 0 154.9-.8-.29-2.45.09-2.7 3.42-2.41 1.7.15 4.43.3 6.08.34l3 .07.12-1.48c.11-1.33.25-1.48 1.4-1.6 1.12-.1 1.3-.28 1.4-1.4.11-1.1.3-1.29 1.4-1.4 1.1-.1 1.3-.29 1.4-1.35.1-1.06.34-1.3 1.6-1.6l1.48-.37.2-2.8.2-2.8 1.3.07 1.3.07-.1-138.07-.1-138.07-1.3-.13-1.3-.12-.05-2.67a50.6 50.6 0 0 1 0-2.98c.03-.17-.08-.28-.25-.25-2.1.33-2.9-.08-2.9-1.45 0-1.33-.07-1.4-1.4-1.4-1.33 0-1.4-.07-1.4-1.36 0-1.27-.1-1.39-1.5-1.62-1.4-.24-1.5-.35-1.45-1.54l.06-1.28-2.94-.12c-2.06-.08-3.3.07-4.13.5-2.67 1.38-6.24.4-6.03-1.65.19-1.73.18-1.73-5.21-1.73h-5.2v-5.5c-.01-5.6-.22-6.69-1.23-6.32-1.08.4-1.53-.4-1.65-2.99l-.12-2.59-1.5-.12-1.5-.13V54.4h-1.4c-1.33 0-1.4-.07-1.4-1.4 0-1.33-.07-1.4-1.4-1.4-1.21 0-1.4-.13-1.4-.97 0-2.02-.3-2.23-3.24-2.23H328v-2.8h-91.2c-80.78 0-91.2-.07-91.25-.6a7.7 7.7 0 0 0-.15-1 8.33 8.33 0 0 1-.15-.8c-.03-.22-.59-.4-1.25-.4-1.19 0-1.2-.02-1.25-2.3-.07-3.6-.02-3.49-1.65-3.62-1.42-.12-1.5-.2-1.5-1.5 0-1.31-.07-1.38-1.4-1.38-1.37 0-1.4-.04-1.4-1.6 0-.88-.14-1.58-.3-1.55-1.67.26-2.94-.1-2.72-.8.67-2.1-1.34-2.68-4.18-1.2-2.09 1.08-3.2.36-3.2-2.09 0-1.5.03-1.52 1.7-1.67.94-.08-18.82-.16-43.9-.17-25.08 0-46 .07-46.5.16m82.74 5.36c1.14 1.11 1.44 1.2 2.96.98 2.1-.32 4.97.6 5.8 1.85.33.5 1.28 1.68 2.1 2.64.84.97 1.5 2.16 1.5 2.7 0 .63.4 1.21 1.1 1.65 1.73 1.07 2.1 1.75 2.1 3.83 0 1.64.14 1.98.92 2.28 1.3.5 1.75 1.18 2.09 3.23.18 1.1.74 2.31 1.44 3.11.88 1 1.15 1.72 1.15 3 0 2.53.7 4.52 2.01 5.84.96.96 1.19 1.53 1.19 2.97 0 1.56.17 1.92 1.38 2.84 1.18.9 1.4 1.32 1.5 2.94.1 1.62.28 1.97 1.23 2.43a3.98 3.98 0 0 1 1.71 2 7.16 7.16 0 0 0 4.32 3.82 2.2 2.2 0 0 1 1.59 1.47c.43 1.13.55 1.18 2.86 1.18 6.32 0 12.77.86 13.68 1.84l.87.94 93.75.1c104.38.13 94.11-.14 97.11 2.57 4.96 4.49 6 5.67 6 6.79.01 3.83.47 5.33 1.9 6.17 1.75 1.03 1.73 3.5-.05 5.6l-1.05 1.25v130.27c0 136.34.04 132.7-1.79 133.9a4.1 4.1 0 0 0-1.36 1.8 3.18 3.18 0 0 1-1.43 1.63 5 5 0 0 0-1.78 1.76 5.77 5.77 0 0 1-1.75 1.84c-.55.3-1.6.9-2.34 1.34-1.55.92-317.45 1.51-319.15.6a3.8 3.8 0 0 1-1.28-1.47c-.37-.74-1.06-1.21-2.36-1.59-2.23-.64-5.62-4.01-6.41-6.38-.43-1.28-.55-30.33-.64-159.13l-.1-157.57-.9-.96c-.76-.8-.93-1.5-1.05-4.26l-.14-3.29 1.44-1.1C31.83 42.9 32 42.56 32 41c0-1.49.18-1.9 1.17-2.64a5.75 5.75 0 0 0 1.64-1.99c.26-.62.9-1.4 1.4-1.73a4.97 4.97 0 0 0 1.46-1.7c.65-1.34 1.64-1.64 5.57-1.69 2.48-.03 3.17-.18 3.75-.83.9-1 1.33-1 41.5-1.12l30.68-.09 1.27 1.24m-69.86 2.64c-1.21 1.21.1 1.26 33.02 1.29 33.99.02 34.46 0 33.35-1.22-1-1.1-65.27-1.18-66.37-.07M320 55.28c3.1.99 3.6 1.3 5.82 3.6a32.94 32.94 0 0 0 3.9 3.52c2.18 1.48 2.96 3.32 2.13 5.06-.81 1.7-1.04 1.68-2.6-.26-.7-.88-1.62-1.6-2.02-1.6-.85 0-1.48-.67-1.7-1.8-.25-1.37-1.65-1.4-73.73-1.38-60.12.02-70.34-.06-72.4-.56-1.32-.33-2.88-.7-3.46-.82-.72-.16-1.2-.63-1.49-1.47-.28-.8-.86-1.4-1.64-1.69-.66-.25-1.21-.72-1.21-1.04 0-1.32-1.27-2.04-3.76-2.12-10.57-.36 18.88-.55 78.36-.53l70.4.03 3.4 1.07" />
	<path fill="#94928c" fill-rule="evenodd" d="M40.61 32.48c-1.22.71-4.41 4.03-4.73 4.92-.27.74-.23.73.41-.07a3.08 3.08 0 0 1 1.71-1c.73-.1 1.12-.5 1.44-1.48.77-2.38 2.92-3.02 5.5-1.63.85.45 1.74.74 2 .65.72-.27-3-1.85-4.34-1.85-.66 0-1.55.21-1.99.46m80.27.2c-.51.1-1.03.44-1.15.76-.13.32-.7.84-1.28 1.16-.88.47-.92.57-.27.58.43.01 1.24-.4 1.8-.93a7.62 7.62 0 0 1 2.22-1.37c1.24-.43.49-.54-1.32-.2m6.52 1.59c2.85 3.83 3.48 4.58 3.68 4.38.37-.37-3.38-5.28-4.56-5.98-.31-.19.08.53.88 1.6m-92.77 4.9c-.4.44-.62 1.16-.52 1.7l.18.93.06-.97c.02-.53.35-1.3.71-1.7.37-.4.57-.73.46-.73-.1 0-.5.34-.89.77m-2.25 5.13L31 45.8l1.5-1.38c.83-.76 1.5-1.43 1.5-1.5 0-.3-.34-.02-1.62 1.38m283.11 12.4c-.56.62-.6.87-.2 1.2 1.26 1 3.2 1.7 4.73 1.7a4 4 0 0 1 2.85 1c1.37 1.15 2.64 1.3 3 .34.18-.43-.07-.92-.7-1.4a9.19 9.19 0 0 1-2.27-2.23c-1.04-1.32-6.37-1.77-7.41-.61m11.88 6.15c-.34.55.44 1.32 1 .97.23-.15.43-.42.43-.6 0-.53-1.15-.83-1.43-.37M149.6 76.45c-.02 1.14 1.59 2.72 3.28 3.22 1.06.32 1.87.89 2.27 1.6.9 1.56 2.03 1.93 5.96 1.94 5.31 0 5.78.24 3.3 1.65-2.58 1.48-2.54 1.55.48.86 6.18-1.4 4.3-3.32-3.25-3.32h-4.38L156 80.8c-.83-1.05-1.59-1.6-2.2-1.6-1.67 0-2.85-.7-3.52-2.06-.37-.74-.67-1.05-.67-.7M258.8 84.8l-83 .2 91.8.03c50.49.02 90-.1 87.8-.25-2.2-.16-6.16-.26-8.8-.23-2.64.02-42.15.14-87.8.25m106.62 5.13c.5 2.58.67 2.92 1.6 3.28.56.21 1.27.97 1.58 1.69l.57 1.3.01-1.9c.02-1.72-.07-1.9-.9-1.9-1.16 0-1.88-.7-1.88-1.84 0-.48-.25-.97-.55-1.09-.37-.14-.51.02-.43.46M33.02 368.8c.16.55.55 1.36.87 1.8.56.77.57.76.3-.2a6.95 6.95 0 0 0-.88-1.8c-.56-.77-.57-.76-.3.2" />
	<path fill="#ac9a45" fill-rule="evenodd" d="M40.84 32.96a3.74 3.74 0 0 0-1.4 1.88c-.32 1-.73 1.4-1.52 1.56-1.38.26-3.34 2.95-3.7 5.08a5.25 5.25 0 0 1-1.65 2.95c-1.6 1.55-1.73 2.81-.76 7.37.52 2.45.59 22.49.59 158.94 0 153.73.01 156.17.77 157.6.43.8 1.12 2.27 1.54 3.26.61 1.45 1.14 2 2.73 2.8 1.08.55 2.68 1.65 3.56 2.44 2.49 2.24-3.77 2.16 161.6 2.16h154.8l2.93-1.37c1.6-.76 3.28-1.82 3.71-2.38a8.91 8.91 0 0 1 2-1.73c.65-.4 1.54-1.5 1.97-2.42.43-.94 1.18-2.2 1.68-2.83l.91-1.13.2-131.07L371 105l.95-1.78.95-1.79-1.24-1.04c-.76-.63-1.7-2.13-2.38-3.81-.73-1.78-1.47-2.95-2.06-3.24-1.2-.6-1.6-1.28-1.61-2.63 0-.8-.32-1.25-1.2-1.7a5 5 0 0 1-1.82-1.83c-1.06-2.05 2.43-1.98-95.9-1.98h-93.25l-1.14 1.1c-1.33 1.27-5.6 1.73-8.62.92-2-.54-1.9-.85.77-2.38 2.45-1.4 1.97-1.63-3.33-1.64-3.96 0-5.06-.37-5.98-1.98a3 3 0 0 0-1.88-1.4 4.7 4.7 0 0 1-3.72-3.68c-.33-1.34-.72-1.92-1.5-2.25-1.91-.81-2.44-1.52-2.44-3.27 0-1.38-.24-1.9-1.4-3.02-1.04-1.01-1.4-1.7-1.4-2.67 0-.76-.66-2.59-1.55-4.28a19.86 19.86 0 0 1-1.81-4.74 4.91 4.91 0 0 0-1.6-3.07c-1.28-1.25-1.31-1.34-.82-2.76.5-1.45.48-1.5-1.06-2.91-1.28-1.18-1.56-1.72-1.56-2.93 0-1.27-.41-1.96-2.7-4.6-1.48-1.72-3.33-4-4.1-5.08-1.9-2.65-5.31-2.8-7.64-.32l-.9.96H85.12c-36.65 0-36.45.01-40.52-2.16-1.45-.77-2.48-.79-3.76-.08m2.32 1.3c-.36.42-.6.44-1.03.08-.67-.56.04-1.2.94-.86.42.17.44.34.09.77m82.29-.74c.7.45-.07 2.13-.85 1.84-1.6-.62-1.5-1.76.2-2.1.11-.02.4.1.65.26m-7.2 3.9c.86.94 1.15.99 5.33.99h4.41l1 1.58a7.02 7.02 0 0 0 1.8 2.02c.64.34.81.84.82 2.31 0 2.16.3 2.77 1.64 3.44.93.46 1.23 1.27 1.75 4.7.12.81.73 2.11 1.36 2.9.63.79 1.34 2.22 1.58 3.19.25.96.73 1.98 1.08 2.27 1.08.9 1.78 2.67 1.78 4.5 0 1.45.21 1.95 1.2 2.83.96.85 1.2 1.4 1.2 2.68 0 2.62.95 4.17 4.88 7.94 2.04 1.97 4.27 4.13 4.94 4.81.98.98 1.56 1.23 2.9 1.23 1.5 0 1.77.15 2.66 1.57 1.28 2.03 1.1 1.95 5.47 2.41 5.86.62 9.71.12 9.88-1.28.08-.74.4-1.17 1-1.31 1.4-.34 184.97-.02 185.31.32.74.73-1.08 1.6-3.95 1.88-1.64.16-3.23.45-3.53.65-.3.2-2.99.46-5.96.59l-5.4.22 4.97.08c4.56.06 5.06.15 5.94.97.85.8 1.47.92 6 1.1l5.04.2.33 1.26c.22.87.67 1.38 1.44 1.65.86.3 1.24.8 1.63 2.14a7.53 7.53 0 0 0 1.77 2.95l1.28 1.2-.1 132.51-.1 132.5-.98.45c-1.03.47-1.61 1.63-2 4-.2 1.2-.44 1.48-1.4 1.68-.63.12-1.8.8-2.58 1.48-3.64 3.2-1.77 3.16-158.84 3.12-158.96-.04-159.95-.06-162.54-2.73a5.37 5.37 0 0 0-3.15-1.8c-1.56-.25-1.7-.38-1.92-1.74-.47-2.93-.63-3.3-1.56-3.73l-.94-.43-.28-11.25c-.52-21.47-.07-305.76.49-306.32.27-.27.5-1.16.5-1.96 0-.92.28-1.7.75-2.14.42-.37.87-1.23 1-1.9.45-2.23 3.1-4.34 5.46-4.34 1.85 0 2.08-.1 2.78-1.3l.77-1.3 36.1.12 36.08.12.91.98M174 89.35c0 1.02.93 1.43 1.97.87.96-.52.96-.52.12-.97-1.14-.61-2.09-.57-2.09.1" />
	<path fill="#8c8454" fill-rule="evenodd" d="M126.4 26.73c0 2.35 1.07 3.16 2.98 2.25 1.31-.62 1.44-.82 1.36-2.17l-.09-1.5-2.13-.06-2.12-.07v1.55M52.75 29.5c-4.42.1-5.13.22-5.76.91-.58.65-1.27.8-3.75.83-3.93.05-4.92.35-5.57 1.68-.28.6-.94 1.37-1.45 1.7a4.46 4.46 0 0 0-1.4 1.74c-.26.62-1 1.52-1.65 2-.99.73-1.17 1.14-1.17 2.63 0 1.56-.17 1.9-1.44 2.87l-1.44 1.1.14 3.28c.12 2.76.29 3.45 1.04 4.26l.9.96.11 157.57c.1 128.8.2 157.85.64 159.13.8 2.37 4.18 5.74 6.41 6.38 1.3.38 2 .85 2.36 1.6A3.8 3.8 0 0 0 42 379.6c1.7.91 317.6.32 319.15-.6a96.2 96.2 0 0 1 2.34-1.34 5.77 5.77 0 0 0 1.75-1.84 5 5 0 0 1 1.78-1.76c.56-.25 1.2-.99 1.43-1.63a4.1 4.1 0 0 1 1.36-1.8c1.83-1.2 1.79 2.44 1.79-133.9V106.46l1.05-1.25c1.78-2.1 1.8-4.57.06-5.6-1.44-.84-1.9-2.34-1.9-6.17-.01-1.12-1.05-2.3-6.01-6.79-3-2.7 7.27-2.44-97.11-2.56l-93.75-.11-.87-.94c-.9-.98-7.36-1.85-13.68-1.84-2.3 0-2.43-.05-2.86-1.18a2.2 2.2 0 0 0-1.59-1.47 7.16 7.16 0 0 1-4.32-3.82 3.98 3.98 0 0 0-1.7-2c-.96-.46-1.14-.8-1.24-2.43-.1-1.62-.32-2.04-1.5-2.94-1.2-.92-1.38-1.28-1.38-2.84 0-1.44-.23-2-1.19-2.97-1.32-1.32-2-3.3-2-5.84 0-1.28-.28-2-1.16-3a6.67 6.67 0 0 1-1.44-3.11c-.34-2.05-.79-2.73-2.1-3.23-.77-.3-.91-.64-.91-2.28 0-2.08-.37-2.76-2.1-3.83-.7-.44-1.1-1.02-1.1-1.64 0-.55-.66-1.74-1.5-2.71a36.94 36.94 0 0 1-2.1-2.64c-.83-1.25-3.7-2.17-5.8-1.85-1.52.23-1.82.13-2.96-.98l-1.27-1.24-30.68.09c-16.88.05-32.96.14-35.74.2m-24.4 1.6a6.37 6.37 0 0 0-.3 1.89c-.04.79-.29 1-1.35 1.1-1.9.18-2.3 3.78-.42 3.7 1.96-.1 2.09-.16 2.7-1.36a4.46 4.46 0 0 1 1.72-1.7c.89-.43 1.1-.8 1.1-1.92 0-.77.18-1.53.4-1.7.22-.16-.55-.26-1.7-.2-1.16.04-2.12.13-2.15.19M46.8 33.5l3 1.5 33.6.1c34.83.12 35.35.1 36.2-1.5.56-1.05 5.17-1.85 6.51-1.14 1.3.7 4.07 4.06 5.05 6.13.42.89 1.32 2.14 2 2.78.98.93 1.24 1.51 1.24 2.77 0 1.32.26 1.82 1.53 3.02 1.46 1.37 1.51 1.51 1.15 2.97-.35 1.45-.3 1.63 1.07 3.02 1.11 1.14 1.45 1.81 1.45 2.9 0 1.27 1.84 5.55 2.8 6.52.22.21.4 1.13.4 2.03 0 1.35.25 1.88 1.4 3 1.1 1.06 1.4 1.68 1.4 2.8 0 1.75.56 2.58 2.37 3.5a3.61 3.61 0 0 1 1.8 1.94c.79 2.28 1.53 3 3.34 3.24 1.37.18 1.95.53 2.93 1.77l1.23 1.55h4.38c7.3 0 9.54 2 3.6 3.22-3.3.68-3.7 1.02-1.83 1.54 3.45.95 8.3.33 8.69-1.13.3-1.19 2.33-1.22 96.09-1.27 98.63-.05 92.73-.2 94.39 2.42a4.6 4.6 0 0 0 2.4 2.01c1.05.35 1.41.7 1.41 1.36 0 1.14.72 1.85 1.88 1.85.82 0 .92.2.92 1.7 0 2.7.75 4.7 2.27 6.09l1.4 1.29-.93 1.76L371 105l-.2 131.07-.2 131.07-.9 1.13c-.5.62-1.26 1.9-1.7 2.83a6.39 6.39 0 0 1-1.97 2.42 8.91 8.91 0 0 0-1.99 1.73c-.43.56-2.1 1.62-3.71 2.38L357.4 379H202.6c-165.37 0-159.11.08-161.6-2.16-.88-.8-2.46-1.88-3.5-2.4-2.08-1.06-3.9-3.5-4.67-6.3-.3-1.08-.43-47.77-.43-157.54 0-136.32-.07-156.35-.6-158.8-.99-4.7-.84-6.21.8-7.8 1.1-1.06 1.4-1.67 1.4-2.82 0-.94.28-1.7.79-2.17.43-.4.9-1.08 1.05-1.53.28-.89 3.5-4.26 4.77-5 1.39-.8 3.1-.52 6.19 1.02m70.15-.35c1.11 1.22.64 1.24-33.35 1.22-32.92-.03-34.23-.08-33.02-1.3 1.1-1.1 65.37-1.03 66.37.08m-94.63 6.7c-.1.2-.2 1.3-.24 2.45l-.05 2.1h1.72c2.94 0 3.92-2.33 1.8-4.25-.68-.6-.92-.64-1.63-.2-.64.4-.9.41-1.12.04-.17-.26-.38-.32-.48-.13M170.6 54.4c-2.86.13-4.1.27-2.76.32 2.49.08 3.76.8 3.76 2.12 0 .32.55.79 1.21 1.04.78.3 1.36.9 1.64 1.7.3.83.77 1.3 1.49 1.46l3.46.82c2.06.5 12.28.58 72.4.56 72.07-.02 73.48 0 73.74 1.38.2 1.13.84 1.8 1.69 1.8.4 0 1.31.72 2.02 1.6 1.56 1.94 1.79 1.97 2.6.26.83-1.74.05-3.58-2.13-5.06a32.94 32.94 0 0 1-3.9-3.52c-2.21-2.3-2.71-2.61-5.82-3.6l-3.4-1.06-70.4-.03c-38.72-.02-72.74.08-75.6.2m152.3 2.92a9.19 9.19 0 0 0 2.27 2.23c.63.48.88.97.7 1.4-.36.96-1.63.81-3-.34a4 4 0 0 0-2.85-1c-1.53 0-3.47-.7-4.73-1.7-.4-.33-.37-.58.2-1.2 1.04-1.16 6.37-.71 7.4.61m5.91 5.9c0 .2-.2.46-.44.61-.55.35-1.33-.42-1-.97.3-.46 1.44-.16 1.44.37m27.28 16.06c-.05 1.87.88 2.72 3 2.72 2.71 0 4.14-.91 4.02-2.56l-.1-1.34-3.44-.07-3.44-.07-.04 1.32M40.6 386.34c-.57.18-.8.61-.8 1.46 0 1.46.6 1.7 4.24 1.76l2.62.04-.1-1.41a6.04 6.04 0 0 0-.36-1.8c-.26-.43-4.32-.46-5.6-.05m316.05.56c-.47 2.46-.26 2.7 2.35 2.66 3.37-.06 3.99-.32 4.13-1.8.15-1.48-.45-1.75-4.01-1.75-2.06 0-2.31.08-2.47.89" />
</svg>
